<svg id="fastfeet" xmlns="http://www.w3.org/2000/svg" width="259.857" height="44" viewBox="0 0 259.857 44">
  <g id="Group">
    <text id="FASTFEET-2" data-name="FASTFEET" transform="translate(77.857 32.857)" fill="#7d40e7" font-size="33" font-family="Helvetica-BoldOblique, Helvetica" font-weight="700" font-style="oblique" letter-spacing="0.033em"><tspan x="0" y="0">FASTFEET</tspan></text>
    <g id="noun_fast_29949" transform="translate(0 0)">
      <path id="Path" d="M80.367,53.968h-44.3a1.319,1.319,0,0,0,0,2.637h44.3a1.319,1.319,0,0,0,0-2.637Z" transform="translate(-15.139 -24.262)" fill="#7d40e7"/>
      <path id="Path-2" data-name="Path" d="M88.877,40.691H47.911a1.269,1.269,0,0,0,0,2.536H88.877a1.269,1.269,0,0,0,0-2.536Z" transform="translate(-20.307 -18.362)" fill="#7d40e7"/>
      <path id="Path-3" data-name="Path" d="M71.976,27.549h-44.3a1.319,1.319,0,0,0,0,2.636h44.3a1.319,1.319,0,0,0,0-2.636Z" transform="translate(-11.494 -12.524)" fill="#7d40e7"/>
      <path id="Path-4" data-name="Path" d="M19.394,44.509A11.522,11.522,0,0,1,7.79,33.1a5.866,5.866,0,0,1,.085-.966,11.388,11.388,0,0,1,3.783-22.2c.369,0,.738.016,1.105.051A11.3,11.3,0,0,1,24.141.509,11.593,11.593,0,0,1,35.509,9.622a1.473,1.473,0,0,1-1.165,1.735,1.5,1.5,0,0,1-1.766-1.147,8.6,8.6,0,0,0-8.44-6.761,8.334,8.334,0,0,0-8.525,8.319,1.463,1.463,0,0,1-.657,1.218,1.519,1.519,0,0,1-1.393.148l-.295-.116a8.833,8.833,0,0,0-1.612-.148A8.462,8.462,0,0,0,9.985,29.654a1.5,1.5,0,0,1,1.034.754,1.455,1.455,0,0,1,.053,1.267l-.127.292c-.017.088-.034.174-.051.259a4.494,4.494,0,0,0-.116.872,8.64,8.64,0,0,0,16.587,3.22,1.5,1.5,0,0,1,1.95-.8,1.461,1.461,0,0,1,.814,1.919A11.563,11.563,0,0,1,19.394,44.509Z" transform="translate(-0.054 -0.509)" fill="#7d40e7"/>
    </g>
  </g>
</svg>
